<svg width="9" height="6" viewBox="0 0 9 6" fill="none" xmlns="http://www.w3.org/2000/svg">
<path d="M4.4541 5.82812C4.38119 5.82812 4.31348 5.79688 4.25098 5.73438L0.0947266 1.57812C0.0322266 1.51562 0.000976562 1.44792 0.000976562 1.375C0.000976562 1.29167 0.0322266 1.22396 0.0947266 1.17188L0.547852 0.71875C0.599935 0.65625 0.667643 0.625 0.750977 0.625C0.823893 0.625 0.891602 0.65625 0.954102 0.71875L4.4541 4.23438L7.96973 0.71875C8.03223 0.65625 8.09993 0.625 8.17285 0.625C8.25618 0.625 8.32389 0.65625 8.37598 0.71875L8.8291 1.17188C8.8916 1.22396 8.92285 1.29167 8.92285 1.375C8.92285 1.44792 8.8916 1.51562 8.8291 1.57812L4.67285 5.73438C4.61035 5.79688 4.53744 5.82812 4.4541 5.82812Z" fill="#1A1A1A"/>
</svg>
