<svg width="17" height="17" viewBox="0 0 17 17" fill="none" xmlns="http://www.w3.org/2000/svg">
<g clip-path="url(#clip0_1_488)">
<path d="M13.2473 5.58997H14.6697C14.8581 5.58997 15.0388 5.66481 15.172 5.79804C15.3052 5.93126 15.3801 6.11196 15.3801 6.30037V15.2796C15.3801 15.468 15.3052 15.6487 15.172 15.7819C15.0388 15.9151 14.8581 15.99 14.6697 15.99H3.29048C3.19719 15.99 3.10481 15.9716 3.01862 15.9359C2.93243 15.9002 2.85412 15.8479 2.78815 15.7819C2.72218 15.7159 2.66986 15.6376 2.63415 15.5514C2.59845 15.4652 2.58008 15.3729 2.58008 15.2796V6.30037C2.58008 6.11196 2.65492 5.93126 2.78815 5.79804C2.92138 5.66481 3.10207 5.58997 3.29048 5.58997H4.71288M8.98008 1.58997V10.1228" stroke="#1A1A1A" stroke-width="1.28" stroke-linecap="round" stroke-linejoin="round"/>
<path d="M6.84766 7.98999L8.98046 10.1228L11.1133 7.98999" stroke="#1A1A1A" stroke-width="1.28" stroke-linecap="round" stroke-linejoin="round"/>
</g>
<defs>
<clipPath id="clip0_1_488">
<rect width="16" height="16" fill="white" transform="translate(0.980469 0.789978)"/>
</clipPath>
</defs>
</svg>
