<svg width="16" height="17" viewBox="0 0 16 17" fill="none" xmlns="http://www.w3.org/2000/svg">
<g clip-path="url(#clip0_1_495)">
<path fill-rule="evenodd" clip-rule="evenodd" d="M0.791016 3.59008C0.791016 2.92734 1.32827 2.39008 1.99101 2.39008H13.991C14.6537 2.39008 15.191 2.92734 15.191 3.59008C15.191 4.25282 14.6537 4.79008 13.991 4.79008H1.99101C1.32827 4.79008 0.791016 4.25282 0.791016 3.59008ZM3.19101 8.57179C3.19101 7.90904 3.72827 7.37179 4.39101 7.37179H11.591C12.2537 7.37179 12.791 7.90904 12.791 8.57179C12.791 9.23453 12.2537 9.77179 11.591 9.77179H4.39101C3.72827 9.77179 3.19101 9.23453 3.19101 8.57179ZM6.79101 12.3564C6.12827 12.3564 5.59101 12.8936 5.59101 13.5564C5.59101 14.2191 6.12827 14.7564 6.79101 14.7564H9.19101C9.85375 14.7564 10.391 14.2191 10.391 13.5564C10.391 12.8936 9.85375 12.3564 9.19101 12.3564H6.79101Z" fill="#1A1A1A"/>
</g>
<defs>
<clipPath id="clip0_1_495">
<rect width="16" height="16" fill="white" transform="translate(-0.00976562 0.789978)"/>
</clipPath>
</defs>
</svg>
