<svg xmlns="http://www.w3.org/2000/svg" viewBox="0 0 64 64" id="settings"><path d="M52,25H48.9l2.19-2.19a2,2,0,0,0,0-2.83L44,12.91a2.06,2.06,0,0,0-2.83,0L39,15.1V12a2,2,0,0,0-2-2H27a2,2,0,0,0-2,2v3.1l-2.19-2.19a2,2,0,0,0-2.83,0L12.91,20a2,2,0,0,0,0,2.83L15.1,25H12a2,2,0,0,0-2,2V37a2,2,0,0,0,2,2h3.1l-2.19,2.19a2,2,0,0,0,0,2.83L20,51.09a2.06,2.06,0,0,0,2.83,0L25,48.9V52a2,2,0,0,0,2,2H37a2,2,0,0,0,2-2V48.9l2.19,2.19a2,2,0,0,0,2.83,0L51.09,44a2,2,0,0,0,0-2.83L48.9,39H52a2,2,0,0,0,2-2V27A2,2,0,0,0,52,25ZM50,35H46.13a2,2,0,0,0-1.89,1.33,12.9,12.9,0,0,1-.52,1.26,2,2,0,0,0,.39,2.28l2.74,2.74-4.24,4.24-2.74-2.74a2,2,0,0,0-2.28-.39,12.9,12.9,0,0,1-1.26.52A2,2,0,0,0,35,46.13V50H29V46.13a2,2,0,0,0-1.33-1.89,12.9,12.9,0,0,1-1.26-.52,2,2,0,0,0-2.28.39l-2.74,2.74-4.24-4.24,2.74-2.74a2,2,0,0,0,.39-2.28,12.9,12.9,0,0,1-.52-1.26A2,2,0,0,0,17.87,35H14V29h3.87a2,2,0,0,0,1.89-1.33,12.9,12.9,0,0,1,.52-1.26,2,2,0,0,0-.39-2.28l-2.74-2.74,4.24-4.24,2.74,2.74a2,2,0,0,0,2.28.39,12.9,12.9,0,0,1,1.26-.52A2,2,0,0,0,29,17.87V14h6v3.87a2,2,0,0,0,1.33,1.89,12.9,12.9,0,0,1,1.26.52,2,2,0,0,0,2.28-.39l2.74-2.74,4.24,4.24-2.74,2.74a2,2,0,0,0-.39,2.28,12.9,12.9,0,0,1,.52,1.26A2,2,0,0,0,46.13,29H50Z"></path><path d="M32,24a8,8,0,1,0,8,8A8,8,0,0,0,32,24Zm0,12a4,4,0,1,1,4-4A4,4,0,0,1,32,36Z"></path></svg>