<svg width="17" height="17" viewBox="0 0 17 17" fill="none" xmlns="http://www.w3.org/2000/svg">
<path d="M4.26013 15.0656C4.08641 15.2367 3.88067 15.3719 3.65468 15.4635C3.42868 15.555 3.18686 15.6012 2.94302 15.5992C2.69919 15.5973 2.45813 15.5473 2.23361 15.4522C2.00909 15.3571 1.80552 15.2186 1.63453 15.0448C1.46342 14.8711 1.32822 14.6653 1.23666 14.4393C1.14509 14.2133 1.09896 13.9715 1.10089 13.7277C1.10282 13.4839 1.15278 13.2428 1.24791 13.0183C1.34305 12.7938 1.48149 12.5902 1.65533 12.4192L7.08253 6.9472C6.84741 6.27533 6.78195 5.55578 6.89198 4.85252C7.002 4.14925 7.2841 3.48408 7.71319 2.91613C8.14228 2.34818 8.70506 1.89506 9.3515 1.59706C9.99793 1.29906 10.708 1.16541 11.4185 1.208C11.5395 1.21403 11.656 1.25502 11.7541 1.326C11.8522 1.39699 11.9276 1.49491 11.9711 1.60789C12.0147 1.72087 12.0245 1.84406 11.9994 1.96251C11.9743 2.08096 11.9154 2.18958 11.8297 2.2752L10.7561 3.3312C10.405 3.67683 10.2055 4.14779 10.2016 4.64049C10.1977 5.13318 10.3897 5.60725 10.7353 5.9584C11.081 6.30954 11.5519 6.50901 12.0446 6.51291C12.5373 6.51681 13.0114 6.32483 13.3625 5.9792L14.4345 4.9232C14.5212 4.83906 14.6304 4.78182 14.749 4.7584C14.8675 4.73498 14.9902 4.74638 15.1024 4.79122C15.2146 4.83606 15.3114 4.91242 15.3811 5.01108C15.4509 5.10974 15.4905 5.22648 15.4953 5.3472C15.5261 6.05754 15.381 6.76449 15.073 7.40532C14.765 8.04615 14.3035 8.60105 13.7296 9.02079C13.1557 9.44053 12.4871 9.71213 11.7831 9.81149C11.0791 9.91086 10.3614 9.83491 9.69373 9.5904L4.26013 15.0656Z" stroke="#1A1A1A" stroke-width="1.28" stroke-linecap="round" stroke-linejoin="round"/>
</svg>
